<svg viewBox="0 0 1981 553" xmlns="http://www.w3.org/2000/svg" xml:space="preserve" fill-rule="evenodd" clip-rule="evenodd" stroke-linecap="round" stroke-linejoin="round" stroke-miterlimit="1.5"><path d="M65.087 1247.27s-10.109-445.241.358-447.144c61.913-11.257 153.354-53.548 153.354-100.177 0 54.511 101.695 103.096 158.362 103.096s181.638-48.585 181.638-103.096c0 54.511 101.695 103.096 158.362 103.096s181.638-48.585 181.638-103.096c0 54.511 101.691 103.096 158.361 103.096 56.67 0 181.64-48.585 181.64-103.096 0 54.511 101.69 103.096 158.36 103.096 56.67 0 181.64-48.585 181.64-103.096 0 54.511 101.69 103.096 158.36 103.096 56.67 0 181.64-48.585 181.64-103.096 0 37.044 51.96 51.403 99.65 70.357 22.49 8.937 17.2 473.154 17.2 473.154l-1970.563 3.81Z" fill="url(#a)" stroke="#fff" stroke-width="5" transform="translate(-58.198 -697.449)"/><defs><linearGradient id="a" x1="0" y1="0" x2="1" y2="0" gradientUnits="userSpaceOnUse" gradientTransform="rotate(90 258.302 970.538) scale(504.456)"><stop offset="0" stop-color="#39b8ff"/><stop offset="1" stop-color="#014972"/></linearGradient></defs></svg>
